#!OML:ASF F:\VICON\USERDATA\INSTALL\SteveWalk\SteveWalk.ASF
:FULLY-SPECIFIED
:DEGREES
121
root 0.390806 16.4314 -18.0401 16.029 3.99432 0.0144387
lowerback -15.0821 -0.175314 -0.456008
upperback -4.29993 -0.234971 1.65686
thorax 3.90629 -0.111563 1.95646
lowerneck -4.00213 -1.77162 -0.135879
upperneck 12.5425 -2.16291 -1.77293
head 4.87368 -1.16069 -0.698876
rclavicle 7.83957e-015 -5.56597e-015
rhumerus -28.9387 -4.26397 -82.671
rradius 40.1445
rwrist -7.44579
rhand -15.5921 -33.2649
rfingers 7.12502
rthumb 10.5937 -62.9779
lclavicle 7.83957e-015 -5.56597e-015
lhumerus -41.5281 19.1424 74.492
lradius 13.9726
lwrist -37.4009
lhand -13.3138 -24.767
lfingers 7.12502
lthumb 12.7907 4.82112
rfemur -24.0222 -3.66572 26.1285
rtibia 34.6756
rfoot -25.9843 5.78054
rtoes -0.0906122
lfemur -45.1078 2.87104 -21.0089
ltibia 61.6531
lfoot -10.7471 5.55309
ltoes -8.67189
122
root 0.397565 16.4267 -17.8351 16.1864 3.86027 0.170835
lowerback -15.1764 -0.150763 -0.567743
upperback -4.30438 -0.181774 1.5682
thorax 3.95035 -0.0860216 1.93653
lowerneck -4.24619 -1.73522 0.0535073
upperneck 12.6494 -2.1023 -1.98167
head 4.96004 -1.13405 -0.805964
rclavicle 7.84578e-015 8.74653e-015
rhumerus -28.1679 -3.06803 -82.986
rradius 42.1907
rwrist -8.68635
rhand -14.9313 -34.7034
rfingers 7.12502
rthumb 11.231 -64.3828
lclavicle 7.84578e-015 8.74653e-015
lhumerus -42.6326 19.9957 73.2347
lradius 13.5634
lwrist -39.5153
lhand -3.35473 -13.9977
lfingers 7.12502
lthumb 22.3735 14.7268
rfemur -23.1898 -4.35297 26.0168
rtibia 34.2787
rfoot -26.2648 6.56532
rtoes 1.26316
lfemur -45.8686 2.70962 -21.3034
ltibia 59.1551
lfoot -10.9495 6.20898
ltoes -6.51715
123
root 0.411379 16.4237 -17.6272 16.3238 3.68673 0.292031
lowerback -15.3874 -0.134942 -0.528005
upperback -4.24546 -0.163872 1.47739
thorax 4.12514 -0.078727 1.8228
lowerneck -4.46412 -1.64293 0.201961
upperneck 13.1251 -1.94919 -2.25062
head 4.63954 -1.07695 -0.828838
rclavicle 6.48535e-015 -5.96354e-015
rhumerus -27.2906 -1.67396 -83.2571
rradius 44.1305
rwrist -9.84621
rhand -14.8774 -35.9105
rfingers 7.12502
rthumb 11.283 -65.5871
lclavicle 6.48535e-015 -5.96354e-015
lhumerus -43.5656 20.2429 72.5002
lradius 13.4191
lwrist -40.2636
lhand -3.81188 -15.096
lfingers 7.12502
lthumb 21.9346 13.6805
rfemur -22.277 -5.1856 25.8801
rtibia 33.8232
rfoot -26.5535 7.46297
rtoes 1.35479
lfemur -46.401 2.50411 -21.5548
ltibia 56.4234
lfoot -11.1064 6.84515
ltoes -1.92655
124
root 0.424443 16.4271 -17.4091 16.3389 3.37237 0.456814
lowerback -15.5525 -0.0951384 -0.553552
upperback -4.17909 -0.103467 1.37138
thorax 4.28181 -0.050662 1.73789
lowerneck -4.44339 -1.51959 0.0390384
upperneck 13.1128 -1.78862 -2.08498
head 4.63772 -0.996131 -0.742474
rclavicle -3.39798e-015 3.57812e-015
rhumerus -26.5073 -0.236877 -83.4743
rradius 46.0682
rwrist -10.9842
rhand -15.0009 -36.1211
rfingers 7.12502
rthumb 11.1639 -65.8041
lclavicle -3.39798e-015 3.57812e-015
lhumerus -44.5653 19.9463 72.1927
lradius 13.5181
lwrist -40.2076
lhand -3.51676 -15.1193
lfingers 7.12502
lthumb 22.2179 13.6237
rfemur -21.1155 -5.78781 25.6041
rtibia 33.2719
rfoot -26.9059 8.0651
rtoes 0.562593
lfemur -46.6145 2.46634 -21.8857
ltibia 53.454
lfoot -11.446 7.32121
ltoes -0.0649779
125
root 0.43598 16.4304 -17.193 16.3271 3.02996 0.374272
lowerback -15.604 0.00835445 -0.357511
upperback -4.11976 0.00379338 1.31985
thorax 4.3687 0.0023442 1.59325
lowerneck -4.48102 -1.43836 -0.0504179
upperneck 13.0321 -1.68479 -1.98032
head 4.6224 -0.943171 -0.689915
rclavicle 6.03187e-015 -6.36111e-015
rhumerus -25.6834 1.08211 -83.6212
rradius 47.9976
rwrist -12.0414
rhand -14.7992 -37.1481
rfingers 7.12502
rthumb 11.3585 -66.8205
lclavicle 6.03187e-015 -6.36111e-015
lhumerus -45.6225 20.5103 71.1578
lradius 13.207
lwrist -41.5823
lhand -4.11606 -15.4275
lfingers 7.12502
lthumb 21.6425 13.3829
rfemur -19.951 -6.09647 25.5628
rtibia 32.5838
rfoot -27.0529 8.60675
rtoes 0.354214
lfemur -46.8518 2.57319 -21.9539
ltibia 50.3214
lfoot -11.5148 7.88565
ltoes -2.58967
126
root 0.449164 16.4237 -16.9846 16.3704 2.65252 0.296494
lowerback -15.5233 0.13165 -0.20032
upperback -4.14724 0.143926 1.28268
thorax 4.29254 0.0727204 1.49075
lowerneck -4.46968 -1.42836 0.0594186
upperneck 12.9952 -1.65825 -2.16864
head 4.6066 -0.935654 -0.764095
rclavicle -6.24308e-015 -1.35174e-014
rhumerus -24.5608 2.1957 -83.6595
rradius 49.248
rwrist -12.9064
rhand -14.8308 -37.3589
rfingers 7.12502
rthumb 11.3279 -67.033
lclavicle -6.24308e-015 -1.35174e-014
lhumerus -46.8027 21.1068 70.0011
lradius 12.9352
lwrist -42.962
lhand -4.81388 -15.7598
lfingers 7.12502
lthumb 20.9722 13.1263
rfemur -18.8439 -6.69621 25.5154
rtibia 31.8121
rfoot -27.2086 9.4485
rtoes 0.547797
lfemur -47.1284 2.69338 -22.016
ltibia 47.0081
lfoot -11.2351 8.36774
ltoes -5.3251
127
root 0.46135 16.4151 -16.7706 16.4246 2.08513 0.318096
lowerback -15.6011 0.299291 -0.240641
upperback -4.15938 0.371645 1.26055
thorax 4.31521 0.18458 1.53397
lowerneck -4.32963 -1.44094 -0.0448878
upperneck 12.5061 -1.67388 -2.17208
head 4.92886 -0.938348 -0.829106
rclavicle -4.72114e-016 4.77083e-015
rhumerus -23.3096 3.25868 -83.523
rradius 50.0461
rwrist -13.8297
rhand -14.9697 -36.2395
rfingers 7.12502
rthumb 11.194 -65.9209
lclavicle -4.72114e-016 4.77083e-015
lhumerus -47.7618 20.5014 70.0532
lradius 13.095
lwrist -41.9407
lhand -5.02845 -15.4186
lfingers 7.12502
lthumb 20.7661 13.4902
rfemur -17.6585 -7.2726 25.2727
rtibia 30.9917
rfoot -27.4399 10.276
rtoes -0.261853
lfemur -47.265 2.92569 -22.1791
ltibia 43.567
lfoot -11.0302 8.48269
ltoes -6.1647
128
root 0.474199 16.4093 -16.5475 16.4533 1.37376 0.425913
lowerback -15.7721 0.482432 -0.400119
upperback -4.12136 0.639645 1.20189
thorax 4.4386 0.314581 1.61618
lowerneck -4.12886 -1.39342 -0.109456
upperneck 12.3001 -1.60666 -2.18731
head 4.81242 -0.90731 -0.81357
rclavicle -5.26158e-015 -7.95139e-015
rhumerus -22.3426 4.4701 -83.4147
rradius 51.2657
rwrist -15.1523
rhand -15.3841 -37.7106
rfingers 7.12502
rthumb 10.7943 -67.4133
lclavicle -5.26158e-015 -7.95139e-015
lhumerus -48.5926 19.5076 70.5946
lradius 13.5293
lwrist -39.9486
lhand -4.84295 -14.8415
lfingers 7.12502
lthumb 20.9443 14.0477
rfemur -16.4102 -7.82375 24.8216
rtibia 30.1524
rfoot -27.6178 11.5371
rtoes -0.38212
lfemur -47.1842 3.16715 -22.3922
ltibia 40.0382
lfoot -10.7249 8.59883
ltoes -8.0179
129
root 0.48555 16.3977 -16.3303 16.4762 0.652588 0.396316
lowerback -15.6719 0.664806 -0.442451
upperback -4.13191 0.887672 1.17638
thorax 4.36564 0.436885 1.6588
lowerneck -4.29303 -1.30967 -0.0970993
upperneck 12.3402 -1.48799 -2.22773
head 4.86225 -0.851514 -0.825832
rclavicle 1.89715e-014 -1.19271e-015
rhumerus -21.4307 5.70631 -83.2907
rradius 52.6585
rwrist -16.47
rhand -15.6781 -40.2624
rfingers 7.12502
rthumb 10.5107 -69.9796
lclavicle 1.89715e-014 -1.19271e-015
lhumerus -49.5908 19.0738 70.6188
lradius 13.9563
lwrist -38.6793
lhand -4.29176 -14.6339
lfingers 7.12502
lthumb 21.4738 14.1958
rfemur -15.1179 -8.19526 24.5028
rtibia 29.2386
rfoot -27.8494 12.4681
rtoes -1.59194
lfemur -47.0968 3.39964 -22.3832
ltibia 36.4766
lfoot -10.2461 8.49957
ltoes -11.1574
